<?xml version="1.0" encoding="UTF-8" standalone="no"?>
<!-- Created with Inkscape (http://www.inkscape.org/) -->
<!-- Created by potrace 1.10, written by Peter Selinger 2001-2011 -->
<svg xmlns:dc="http://purl.org/dc/elements/1.1/" xmlns:cc="http://creativecommons.org/ns#" xmlns:rdf="http://www.w3.org/1999/02/22-rdf-syntax-ns#" xmlns:svg="http://www.w3.org/2000/svg" xmlns="http://www.w3.org/2000/svg" version="1.0" width="1964.7006" height="433.35306" viewBox="0 0 1571.7604 346.68245" id="svg2">
  <defs id="defs30"/>
  <metadata id="metadata4">
<rdf:RDF>
  <cc:Work rdf:about="">
    <dc:format>image/svg+xml</dc:format>
    <dc:type rdf:resource="http://purl.org/dc/dcmitype/StillImage"/>
    <dc:title/>
  </cc:Work>
</rdf:RDF>
</metadata>
  <g transform="matrix(0.1,0,0,-0.1,-32.239506,400.91653)" id="g6" style="fill:#000000;stroke:none">
    <path d="m 2833,3575 c -104,-36 -133,-56 -133,-94 0,-23 -5,-21 -63,37 -56,56 -67,62 -103,62 -59,0 -74,-22 -85,-122 -14,-125 -47,-166 -165,-203 -52,-16 -80,-17 -323,-9 -359,11 -733,10 -861,-4 -304,-33 -557,-247 -576,-489 -7,-81 9,-138 46,-164 31,-23 137,-44 173,-35 37,9 62,94 54,182 -8,85 12,141 68,193 72,66 110,73 423,79 149,2 272,2 272,0 0,-7 -70,-327 -104,-478 -13,-58 -38,-170 -56,-250 -29,-133 -69,-259 -122,-383 -25,-57 -62,-81 -113,-71 -26,4 -43,1 -69,-15 -41,-25 -46,-37 -46,-102 0,-73 32,-104 134,-130 72,-19 105,-20 360,-17 l 281,3 70,31 c 107,46 182,105 196,154 l 12,41 -58,59 c -33,33 -68,60 -78,60 -11,0 -55,-18 -99,-40 -75,-37 -187,-74 -196,-65 -3,2 7,46 21,97 15,51 40,156 57,233 17,77 39,178 50,225 10,47 33,157 50,245 38,194 66,308 82,342 24,47 92,63 274,63 212,0 267,16 362,104 55,51 132,187 139,246 5,46 7,49 23,35 9,-8 30,-20 47,-25 l 30,-11 -27,-132 c -15,-73 -44,-195 -65,-272 -20,-77 -47,-189 -60,-250 -13,-60 -40,-173 -59,-250 -41,-167 -56,-231 -91,-390 -58,-265 -65,-303 -65,-371 0,-83 16,-104 92,-123 58,-14 163,-14 188,-1 20,11 55,113 91,265 31,134 73,210 190,348 4,5 -4,-33 -18,-85 -36,-137 -83,-358 -83,-392 0,-45 21,-103 45,-126 45,-43 230,-67 281,-37 62,35 113,97 134,160 l 12,39 18,-29 c 9,-15 36,-49 58,-74 96,-108 322,-168 634,-169 279,0 442,56 594,205 82,81 144,182 144,236 0,14 -24,46 -68,91 -59,58 -74,68 -104,68 -52,0 -83,-30 -107,-103 -29,-87 -77,-156 -136,-194 -135,-89 -405,-89 -642,-1 -50,18 -52,20 -63,71 -7,29 -10,70 -8,92 3,34 8,42 43,62 22,13 51,23 63,23 13,0 38,6 55,14 18,8 48,19 67,25 65,18 139,49 172,72 95,65 133,187 89,284 -23,52 -131,151 -179,166 -22,6 -81,9 -138,7 -86,-3 -108,-7 -164,-34 -98,-46 -180,-128 -244,-243 -84,-149 -100,-203 -100,-351 -1,-69 3,-145 7,-170 l 8,-45 -51,50 -50,50 36,150 c 105,444 105,438 13,531 l -63,64 -86,0 c -70,0 -95,-5 -139,-25 l -53,-25 6,26 c 4,15 21,86 37,158 17,72 43,183 59,246 50,198 90,392 90,437 0,58 -17,87 -83,151 -54,50 -58,52 -109,51 -31,-1 -92,-15 -145,-34 z m 193,7 c 20,-13 34,-50 34,-89 0,-41 -41,-241 -90,-433 -27,-107 -110,-459 -132,-559 -12,-52 2,-91 32,-91 12,0 42,23 73,56 71,77 129,104 228,104 85,0 96,-7 106,-62 6,-40 -2,-83 -62,-338 -60,-254 -68,-302 -55,-335 9,-23 15,-26 38,-23 15,3 35,9 46,13 16,7 17,5 11,-16 -16,-52 -39,-92 -77,-127 -55,-52 -76,-61 -139,-62 -65,0 -91,16 -108,69 -12,37 8,150 68,383 33,130 55,263 46,278 -10,15 -48,12 -75,-7 -41,-29 -48,-35 -115,-114 -79,-94 -127,-187 -154,-304 -36,-152 -71,-254 -91,-265 -26,-14 -124,-12 -138,2 -17,17 -15,79 7,183 60,279 87,401 137,600 19,77 46,190 59,250 13,61 40,171 59,245 50,187 98,424 94,463 -3,29 -7,32 -43,37 -50,7 -65,16 -65,39 0,28 22,42 123,77 90,31 161,41 183,26 z m -445,-39 c 9,-10 14,-40 14,-77 0,-56 -5,-68 -52,-146 -112,-184 -185,-220 -447,-220 -182,0 -250,-16 -274,-63 -16,-34 -44,-148 -82,-342 -17,-88 -40,-198 -50,-245 -11,-47 -35,-157 -55,-245 -19,-88 -49,-206 -65,-261 -17,-56 -28,-109 -25,-117 6,-13 45,-29 108,-42 39,-8 132,19 224,65 45,22 85,40 91,40 19,0 24,-20 12,-56 -15,-43 -95,-105 -195,-148 l -70,-31 -270,-3 c -296,-4 -338,2 -364,49 -31,55 21,114 91,103 47,-8 93,17 116,64 43,85 102,266 132,402 18,80 43,192 56,250 104,458 120,546 103,566 -12,14 -48,15 -343,12 -377,-5 -406,-10 -481,-79 -57,-52 -77,-111 -69,-194 9,-86 -16,-172 -52,-181 -66,-17 -105,52 -85,147 28,131 129,258 263,333 176,98 263,111 693,107 790,-8 775,-8 830,17 95,44 120,82 134,201 5,45 14,88 21,96 17,20 74,19 91,-2 z m 1435,-993 c 48,-24 74,-73 74,-139 0,-41 -28,-112 -57,-147 -38,-44 -118,-86 -223,-115 -19,-6 -49,-17 -67,-25 -17,-8 -42,-14 -55,-14 -12,0 -41,-10 -63,-23 -36,-20 -40,-27 -43,-67 -4,-50 13,-141 34,-182 20,-40 117,-85 254,-120 155,-39 252,-45 374,-23 180,32 254,92 316,260 30,81 60,106 107,89 47,-16 51,-50 13,-130 -47,-99 -166,-214 -281,-272 -153,-77 -379,-101 -636,-67 -167,22 -255,62 -323,147 -52,66 -64,111 -64,243 0,131 17,190 99,336 104,184 232,268 409,269 70,0 99,-4 132,-20 z" id="path8"/>
    <path d="m 3774,2451 c -23,-10 -53,-34 -67,-52 -28,-38 -69,-138 -61,-151 9,-13 94,-9 155,8 78,22 94,41 94,116 0,51 -4,63 -24,79 -29,24 -45,24 -97,0 z m 96,-125 c -9,-24 -56,-53 -68,-42 -2,3 12,22 32,42 40,40 52,41 36,0 z" id="path10"/>
    <path d="m 15066,3570 c -100,-39 -123,-95 -63,-154 17,-18 38,-35 46,-37 11,-4 8,-30 -14,-139 -73,-369 -183,-840 -196,-840 -5,0 -9,5 -9,11 0,19 -114,131 -147,145 -69,29 -166,9 -199,-40 l -17,-26 -53,50 c -29,27 -61,50 -71,50 -39,-1 -218,-71 -245,-97 -24,-23 -27,-33 -24,-70 4,-46 36,-93 64,-93 10,0 12,-7 8,-26 -4,-14 -15,-67 -26,-117 -19,-95 -43,-195 -79,-331 -12,-44 -21,-110 -21,-147 0,-91 23,-120 114,-143 80,-20 104,-20 149,-1 33,14 38,22 60,92 14,43 35,119 47,168 12,50 39,126 60,170 45,94 142,223 173,230 12,3 59,7 104,8 l 82,3 -6,-31 c -3,-16 -16,-75 -30,-130 -33,-133 -41,-292 -19,-367 26,-90 90,-137 212,-154 48,-7 110,20 165,72 l 35,35 20,-22 c 27,-29 58,-43 142,-64 221,-53 419,36 471,213 25,83 25,93 6,160 -18,59 -69,127 -191,253 -93,96 -102,122 -59,164 28,29 32,29 105,10 73,-20 144,-19 164,1 9,8 16,31 16,50 0,28 -10,45 -47,86 -27,28 -66,64 -87,80 -35,25 -47,28 -122,28 -212,0 -324,-114 -312,-319 7,-111 31,-156 147,-275 104,-105 126,-141 116,-186 -12,-57 -81,-64 -175,-19 -55,26 -73,30 -116,26 -49,-5 -54,-3 -85,29 -18,19 -43,34 -56,34 -27,0 -30,-17 44,300 116,496 251,1198 239,1238 -4,11 -35,47 -70,81 l -64,61 -69,0 c -42,-1 -86,-8 -117,-20 z m 194,-20 c 24,-24 24,-18 0,-159 -65,-364 -146,-760 -223,-1091 -53,-226 -77,-351 -77,-404 0,-57 52,-69 112,-26 35,25 48,25 48,0 0,-81 -176,-243 -245,-226 -96,24 -138,166 -100,336 9,36 24,110 36,165 11,55 45,199 74,320 77,315 181,799 198,927 6,40 -3,53 -45,63 -42,11 -54,31 -33,55 48,53 215,80 255,40 z m 420,-966 c 37,-25 50,-45 50,-75 0,-56 -61,-76 -137,-44 -56,24 -119,20 -148,-10 -48,-47 -37,-73 79,-196 124,-131 161,-183 177,-253 16,-74 -16,-180 -73,-242 -104,-113 -323,-151 -422,-73 -54,42 -18,139 53,139 16,0 58,-13 93,-30 69,-33 124,-38 167,-15 31,15 41,39 41,97 0,61 -17,89 -121,194 -138,141 -171,225 -135,348 22,73 64,119 141,151 75,30 196,35 235,9 z m -1319,-24 c 11,-6 24,-30 30,-55 17,-67 73,-74 105,-14 27,53 110,74 178,45 64,-27 85,-146 35,-192 -17,-15 -38,-19 -98,-20 -42,-1 -86,-4 -98,-8 -33,-10 -129,-139 -173,-231 -21,-44 -48,-120 -60,-170 -12,-49 -33,-125 -47,-168 -22,-71 -27,-78 -61,-93 -46,-19 -96,-11 -117,19 -20,29 -19,79 6,173 39,151 60,240 90,384 28,136 29,145 13,157 -10,7 -24,13 -31,13 -7,0 -20,12 -29,26 -17,24 -16,26 7,50 13,13 67,39 119,58 112,40 106,39 131,26 z" id="path12"/>
    <path d="m 7856,3560 c -100,-39 -123,-95 -63,-154 17,-18 38,-35 46,-37 15,-5 7,-51 -80,-454 -48,-222 -148,-636 -155,-644 -2,-2 -8,9 -14,25 -47,127 -145,236 -245,273 -70,26 -229,29 -296,6 -124,-44 -207,-104 -266,-194 l -39,-60 -44,44 c -24,25 -51,45 -59,45 -8,0 -39,-12 -70,-27 -55,-28 -59,-28 -306,-33 -210,-5 -257,-9 -293,-24 -50,-22 -82,-62 -82,-104 0,-65 72,-102 200,-102 54,0 61,-2 56,-17 -3,-10 -15,-58 -27,-107 -11,-49 -29,-113 -40,-141 -17,-47 -24,-54 -82,-82 -85,-43 -105,-46 -178,-23 -97,31 -105,37 -136,109 -27,64 -28,70 -28,246 1,266 39,444 142,657 69,144 141,222 241,263 141,57 247,39 290,-51 18,-37 21,-54 15,-122 -5,-72 -4,-80 18,-104 17,-20 41,-31 85,-39 33,-7 68,-10 77,-6 9,3 20,29 27,63 7,32 19,76 27,98 8,23 36,114 63,204 26,89 55,174 65,188 27,42 73,56 139,42 67,-15 90,-5 94,38 2,25 -7,39 -60,91 -56,53 -70,61 -115,68 -64,8 -150,-14 -180,-47 -11,-13 -41,-66 -66,-120 -27,-59 -55,-103 -70,-113 -24,-15 -30,-15 -89,0 -97,27 -330,32 -421,10 -184,-44 -403,-231 -506,-433 -35,-68 -90,-221 -106,-294 -36,-160 -29,-471 14,-591 42,-120 149,-240 264,-297 90,-44 243,-80 339,-80 78,0 80,-1 75,-22 -3,-13 -17,-77 -31,-143 -44,-207 -83,-350 -110,-403 -51,-100 -167,-163 -273,-147 -40,6 -54,15 -112,77 -71,75 -122,108 -171,108 -127,0 -66,-234 81,-310 47,-24 177,-57 260,-66 72,-7 193,9 249,32 146,62 239,150 305,290 43,91 169,569 225,854 11,58 27,132 35,165 8,33 17,72 20,87 7,38 44,59 115,67 l 60,7 -7,-35 c -5,-20 -8,-101 -8,-181 1,-129 3,-151 23,-195 44,-97 122,-152 258,-184 256,-59 438,18 561,236 l 33,58 0,-41 c 0,-107 61,-199 147,-224 85,-24 117,-23 169,3 50,25 154,125 154,149 1,7 7,0 14,-17 34,-77 94,-121 206,-150 75,-19 113,-15 195,25 33,16 64,25 70,21 19,-15 104,-31 162,-31 36,0 75,8 102,21 55,24 128,83 136,108 5,16 13,11 58,-36 63,-67 83,-78 189,-103 107,-26 173,-25 250,1 119,41 228,134 228,193 0,13 -23,45 -58,79 -73,73 -102,76 -166,17 -42,-39 -108,-70 -149,-70 -18,0 -19,5 -14,62 3,36 13,71 24,86 13,17 70,45 188,93 158,63 173,72 220,122 30,31 56,70 63,94 11,36 15,40 38,35 23,-4 25,-8 21,-41 -5,-42 -62,-336 -77,-399 -5,-23 -10,-78 -10,-121 0,-92 9,-105 91,-127 63,-16 127,-18 163,-5 26,10 43,57 95,265 30,120 79,218 147,291 l 55,60 -6,-80 c -8,-97 -31,-225 -51,-275 -12,-30 -23,-39 -64,-54 -65,-24 -90,-55 -88,-113 1,-60 28,-90 98,-108 75,-20 107,-19 176,6 92,34 151,34 375,0 439,-64 544,-64 684,4 95,46 143,89 211,191 71,107 99,192 90,268 -7,50 -12,58 -81,125 -59,58 -79,71 -105,71 -66,0 -84,-28 -95,-155 -10,-103 -34,-201 -56,-229 -19,-24 -102,-57 -180,-71 -35,-7 -355,17 -474,35 -33,5 -94,12 -136,15 l -76,7 37,98 c 69,182 95,352 69,455 -9,34 -27,59 -85,116 l -75,72 -72,-5 c -83,-5 -125,-24 -182,-79 l -41,-39 -59,60 c -78,79 -106,80 -218,14 -42,-25 -86,-58 -97,-72 l -21,-26 -67,67 c -112,111 -201,129 -352,70 -134,-53 -237,-145 -324,-288 -74,-124 -97,-200 -104,-338 l -5,-119 -27,29 -28,28 14,77 c 7,43 22,117 33,165 32,143 79,365 85,408 4,22 22,112 42,200 109,499 110,501 186,571 23,22 58,46 77,54 36,15 48,12 166,-30 83,-31 177,-38 210,-16 20,13 25,25 25,58 0,39 -5,47 -67,108 -79,76 -114,90 -229,90 -166,0 -358,-92 -463,-222 -55,-68 -126,-204 -152,-292 -27,-87 -99,-383 -99,-403 0,-12 -5,-25 -11,-29 -7,-4 -68,-7 -138,-8 -107,-1 -133,-4 -173,-23 -68,-31 -180,-148 -217,-226 -62,-130 -111,-333 -111,-460 l 0,-61 -38,37 c -21,20 -48,37 -60,37 -26,0 -29,-15 45,300 116,496 251,1198 239,1238 -4,11 -35,47 -70,81 l -64,61 -69,0 c -42,-1 -86,-8 -117,-20 z m 194,-20 c 24,-24 24,-18 0,-159 -65,-364 -146,-760 -223,-1091 -53,-226 -77,-351 -77,-404 0,-57 52,-69 112,-26 35,25 48,25 48,0 0,-81 -176,-243 -245,-226 -96,24 -138,166 -100,336 9,36 24,110 36,165 11,55 45,199 74,320 77,315 181,799 198,927 6,40 -3,53 -45,63 -42,11 -54,31 -33,55 48,53 215,80 255,40 z m 1411,-22 c 54,-16 79,-42 79,-83 0,-70 -69,-83 -183,-34 -96,41 -179,49 -233,21 -21,-11 -55,-38 -75,-59 -67,-69 -65,-65 -173,-558 -20,-88 -38,-178 -42,-200 -6,-40 -43,-217 -89,-430 -41,-187 -58,-305 -45,-320 16,-20 60,-28 76,-14 24,20 27,3 6,-43 -34,-78 -146,-147 -237,-148 -58,0 -75,12 -75,52 0,17 -7,31 -17,35 -16,6 -22,4 -106,-53 -25,-17 -71,-39 -101,-48 -55,-18 -56,-18 -110,7 -113,52 -148,170 -111,383 36,203 97,344 191,439 94,96 130,110 285,110 135,1 159,8 159,49 0,19 73,316 99,402 26,88 97,224 151,291 46,57 141,128 205,154 145,58 258,74 346,47 z m -2648,-60 c 22,-12 19,-56 -5,-71 -12,-8 -27,-6 -55,7 -37,16 -41,16 -87,-1 -27,-10 -57,-29 -68,-43 -10,-14 -37,-86 -58,-160 -22,-74 -53,-178 -69,-230 -16,-52 -33,-111 -38,-130 -10,-40 -39,-52 -59,-25 -9,13 -11,40 -7,94 5,69 3,82 -20,128 -59,116 -250,157 -419,88 -100,-41 -172,-119 -241,-263 -104,-216 -141,-391 -142,-667 0,-186 1,-191 27,-248 56,-119 112,-168 235,-206 85,-26 111,-24 202,22 77,38 87,57 130,234 44,181 46,199 22,212 -11,6 -66,11 -123,11 -57,0 -110,4 -118,10 -24,15 8,60 60,84 40,18 70,21 295,26 249,5 250,5 308,33 62,31 87,26 87,-15 0,-66 -72,-126 -165,-138 -77,-10 -112,-30 -120,-68 -3,-15 -12,-54 -20,-87 -8,-33 -24,-107 -35,-165 -56,-285 -182,-763 -225,-854 -56,-118 -132,-200 -240,-259 -172,-93 -412,-82 -522,25 -38,37 -77,121 -68,149 9,28 50,34 94,15 26,-12 47,-34 70,-73 38,-63 87,-91 175,-100 112,-12 229,55 282,160 27,52 66,196 109,397 13,63 31,145 40,182 8,37 12,74 9,82 -8,21 -39,29 -63,17 -29,-16 -198,-13 -266,4 -177,45 -310,162 -366,322 -43,119 -49,371 -14,531 16,73 71,225 107,295 69,136 203,278 341,359 94,56 185,78 321,77 109,0 141,-4 259,-29 53,-12 61,-11 85,6 16,11 48,61 77,120 28,56 56,108 64,118 33,39 159,54 214,24 z m 548,-921 c 50,-24 60,-34 87,-90 43,-87 56,-154 47,-249 -10,-114 -29,-180 -85,-293 -83,-169 -187,-262 -329,-295 -57,-13 -159,-9 -221,10 -64,19 -129,76 -158,138 -24,52 -27,68 -27,182 0,108 4,138 27,216 51,169 146,301 259,357 101,51 128,57 239,54 92,-2 112,-5 161,-30 z m 2154,13 c 70,-24 82,-33 101,-78 30,-74 3,-171 -71,-250 -46,-49 -62,-58 -220,-121 -116,-47 -175,-76 -188,-93 -10,-13 -21,-49 -24,-80 -12,-122 21,-178 105,-178 69,0 127,23 179,71 33,30 51,39 71,37 38,-4 39,-35 2,-86 -64,-89 -223,-160 -331,-148 -82,8 -136,34 -186,89 -54,59 -67,106 -60,227 6,113 35,201 103,314 100,166 241,275 397,306 61,12 59,12 122,-10 z m 485,-29 c 5,-11 10,-46 10,-78 0,-106 42,-112 125,-18 68,78 118,106 200,112 75,6 107,-15 124,-81 30,-122 -5,-301 -110,-549 -23,-56 -29,-81 -21,-89 6,-6 66,-14 134,-19 68,-5 177,-15 243,-23 192,-24 404,-39 448,-32 82,13 166,47 191,77 27,32 50,122 61,239 11,112 25,140 71,140 70,0 101,-96 66,-206 -23,-75 -119,-221 -175,-270 -56,-47 -168,-100 -245,-115 -75,-14 -211,-3 -516,42 -217,32 -322,36 -364,16 -46,-23 -120,-40 -147,-33 -14,4 -31,17 -37,31 -16,36 10,69 72,91 37,13 56,27 67,48 28,54 54,208 60,356 5,129 4,147 -11,160 -15,12 -23,11 -63,-11 -63,-33 -156,-139 -197,-224 -19,-39 -45,-112 -57,-161 -52,-208 -69,-255 -95,-265 -33,-12 -81,-12 -105,1 -22,12 -26,80 -9,152 6,24 24,115 41,203 17,88 36,180 41,205 6,25 11,59 12,75 1,28 -2,30 -39,35 -34,4 -40,9 -43,30 -4,42 32,84 114,133 87,52 136,61 154,28 z" id="path14"/>
    <path d="m 8395,2488 c -97,-34 -170,-200 -200,-459 -9,-75 10,-165 42,-197 21,-21 31,-24 69,-19 111,12 197,140 254,379 25,108 34,194 22,233 -18,62 -105,91 -187,63 z m 166,-112 c 11,-40 -22,-205 -61,-311 -47,-126 -102,-201 -163,-224 -24,-10 -27,-8 -32,23 -14,70 32,299 80,401 35,75 72,116 120,133 40,14 48,11 56,-22 z" id="path16"/>
    <path d="m 7075,2466 c -40,-18 -67,-49 -103,-121 -100,-195 -138,-420 -94,-550 20,-60 60,-85 135,-85 88,0 135,36 189,145 78,155 128,425 99,532 -20,73 -38,87 -122,90 -48,2 -85,-2 -104,-11 z m 202,-116 c 30,-84 -20,-335 -97,-490 -48,-94 -93,-130 -164,-130 -41,0 -46,13 -46,121 0,112 44,271 112,404 36,72 63,103 103,121 49,22 78,14 92,-26 z" id="path18"/>
    <path d="m 9295,2431 c -39,-23 -60,-55 -91,-137 -30,-81 -30,-102 0,-115 32,-15 96,15 166,78 53,48 76,100 64,148 -12,47 -83,61 -139,26 z m 106,-108 c -5,-10 -24,-31 -42,-48 -34,-32 -31,-21 8,33 26,34 51,45 34,15 z" id="path20"/>
    <path d="m 13502,3485 c -62,-19 -78,-37 -132,-151 -29,-63 -57,-108 -73,-119 -24,-15 -30,-15 -89,0 -97,27 -330,32 -421,10 -184,-44 -403,-231 -506,-433 -35,-68 -90,-221 -106,-294 -36,-160 -29,-471 14,-591 42,-120 149,-240 264,-297 90,-44 243,-80 339,-80 78,0 80,-1 75,-22 -3,-13 -17,-77 -31,-143 -44,-207 -83,-350 -110,-403 -51,-100 -167,-163 -274,-147 -42,6 -55,14 -117,79 -76,80 -117,106 -165,106 -128,0 -67,-234 81,-310 47,-24 177,-57 260,-66 72,-7 193,9 249,32 146,62 239,150 305,290 43,91 169,569 225,854 11,58 27,132 35,165 8,33 17,72 20,87 8,38 43,58 120,68 95,12 165,72 165,142 0,26 -115,148 -139,148 -8,0 -39,-12 -70,-27 -55,-28 -59,-28 -306,-33 -210,-5 -257,-9 -293,-24 -50,-22 -82,-62 -82,-104 0,-65 72,-102 200,-102 54,0 61,-2 56,-17 -3,-10 -15,-58 -27,-107 -11,-49 -29,-113 -40,-141 -17,-47 -24,-54 -82,-82 -85,-43 -105,-46 -178,-23 -97,31 -105,37 -136,109 -27,64 -28,70 -28,246 1,266 39,444 142,657 69,144 141,222 241,263 141,57 247,39 290,-51 18,-37 21,-54 15,-122 -5,-72 -4,-80 18,-104 17,-20 41,-31 85,-39 33,-7 68,-10 77,-6 9,3 20,29 27,63 7,32 19,76 27,98 8,23 36,114 63,204 26,89 55,174 65,188 27,42 73,56 139,42 67,-14 90,-5 94,38 2,24 -8,39 -56,87 -77,76 -135,92 -230,62 z m 161,-27 c 22,-12 19,-56 -5,-71 -12,-8 -27,-6 -55,7 -37,16 -41,16 -87,-1 -27,-10 -57,-29 -68,-43 -10,-14 -37,-86 -58,-160 -22,-74 -53,-178 -69,-230 -16,-52 -33,-111 -38,-130 -10,-40 -39,-52 -59,-25 -9,13 -11,40 -7,94 5,69 3,82 -20,128 -59,116 -250,157 -419,88 -100,-41 -172,-119 -241,-263 -104,-216 -141,-391 -142,-667 0,-186 1,-191 27,-248 56,-119 112,-168 235,-206 85,-26 111,-24 202,22 77,38 87,57 130,234 44,181 46,199 22,212 -11,6 -66,11 -123,11 -57,0 -110,4 -118,10 -24,15 8,60 60,84 40,18 70,21 295,26 249,5 250,5 308,33 62,31 87,26 87,-15 0,-66 -72,-126 -165,-138 -77,-10 -112,-30 -120,-68 -3,-15 -12,-54 -20,-87 -8,-33 -24,-107 -35,-165 -56,-285 -182,-763 -225,-854 -56,-118 -132,-200 -240,-259 -172,-93 -412,-82 -522,25 -38,37 -77,121 -68,149 9,28 50,34 94,15 26,-12 47,-34 70,-73 38,-63 87,-91 175,-100 112,-12 229,55 282,160 27,52 66,196 109,397 13,63 31,145 40,182 8,37 12,74 9,82 -8,21 -39,29 -63,17 -29,-16 -198,-13 -266,4 -177,45 -310,162 -366,322 -43,119 -49,371 -14,531 16,73 71,225 107,295 69,136 203,278 341,359 94,56 185,78 321,77 109,0 141,-4 259,-29 53,-12 61,-11 85,6 16,11 48,61 77,120 28,56 56,108 64,118 33,39 159,54 214,24 z" id="path22"/>
    <path d="m 13909,2995 c -47,-31 -62,-70 -57,-145 8,-108 58,-143 205,-144 106,-1 118,9 118,99 0,63 -1,65 -45,110 -62,65 -123,105 -157,104 -15,0 -44,-11 -64,-24 z m 116,-17 c 40,-26 53,-69 39,-127 -11,-42 -41,-61 -101,-61 -52,0 -79,23 -89,75 -8,47 10,89 50,114 41,26 59,25 101,-1 z" id="path24"/>
    <path d="m 13759,2528 c -35,-18 -80,-49 -101,-69 -33,-32 -38,-41 -37,-80 2,-48 29,-89 61,-89 22,0 22,-8 -1,-95 -84,-317 -102,-396 -107,-473 -8,-106 3,-125 86,-147 118,-31 225,-6 297,69 64,67 65,88 7,147 l -48,49 41,157 c 23,87 55,209 72,272 17,62 31,125 31,140 0,19 -17,43 -63,89 -62,61 -63,62 -118,62 -44,0 -70,-7 -120,-32 z m 179,0 c 18,-18 15,-45 -19,-169 -93,-348 -118,-446 -119,-466 0,-23 42,-53 75,-53 41,0 22,-61 -37,-118 -62,-59 -197,-91 -233,-55 -23,22 -13,98 37,293 22,85 49,191 60,235 10,44 23,95 29,112 13,42 6,53 -35,53 -65,0 -71,50 -13,94 66,50 147,86 196,86 26,0 52,-5 59,-12 z" id="path26"/>
  </g>
  <path d="m 89.535958,234.91101 c -1.769992,-0.31539 -5.093752,-0.8766 -7.386144,-1.24713 -9.15232,-1.4793 -7.670712,-12.14828 1.687048,-12.14828 2.496824,0 6.154408,-0.83502 8.12796,-1.85558 6.876136,-3.55579 13.625348,-23.63978 24.466388,-72.80592 12.26707,-55.633423 12.17158,-54.867703 7.00388,-56.164711 -5.57404,-1.398992 -66.17846,0.463416 -71.229876,2.188936 -6.155972,2.102832 -13.924185,9.799075 -15.455945,15.312745 -0.695293,2.50275 -1.2674,8.14364 -1.271348,12.5353 -0.004,4.39168 -0.664911,9.42842 -1.468807,11.19278 -2.852417,6.26038 -7.901746,5.57693 -10.197843,-1.38031 -4.169205,-12.63282 10.613231,-34.032427 30.324847,-43.899379 14.088904,-7.052416 14.759216,-7.1168 82.385092,-7.912232 60.59908,-0.712784 63.25284,-0.845752 67.57714,-3.386048 5.99289,-3.520496 9.80564,-9.457352 10.88726,-16.952576 1.79856,-12.463456 3.36503,-14.649952 8.51937,-11.891424 1.93313,1.034568 2.48129,2.7246 2.48129,7.650016 0,11.146056 -12.27901,28.131344 -23.81018,32.936096 -3.50229,1.459312 -11.31074,2.461 -24.45808,3.137536 -19.29888,0.993088 -24.55875,2.024744 -27.32658,5.359776 -1.83625,2.212552 -4.97831,15.104925 -13.28043,54.491665 -3.58163,16.99193 -8.51035,38.68038 -10.95271,48.19655 -2.44236,9.51619 -4.44065,18.08999 -4.44065,19.05288 0,2.38255 7.84275,5.48599 13.79677,5.45951 3.91484,-0.0174 15.25353,-3.94732 28.36122,-9.8298 1.00211,-0.44974 1.60909,0.28478 1.60909,1.94722 0,3.96599 -7.84658,11.08212 -17.01259,15.42886 -7.84766,3.72154 -8.79998,3.85576 -31.90356,4.4965 -13.09795,0.36326 -25.26262,0.40242 -27.032612,0.087 l 0,0 z" id="path3007" style="fill:#ffffff;fill-opacity:1;stroke:none"/>
  <path d="m 264.42508,235.78894 c -4.13718,-3.35051 -3.78793,-8.17851 2.6621,-36.80052 2.87188,-12.74394 5.2259,-25.6327 5.23115,-28.64169 0.008,-4.82067 -0.33468,-5.46988 -2.8868,-5.4624 -4.09779,0.012 -8.70221,3.40476 -15.71135,11.57692 -8.23966,9.60684 -12.83157,19.10546 -18.00028,37.23451 -2.39817,8.41153 -5.00676,16.50157 -5.79686,17.97789 -1.77719,3.32072 -7.05948,4.76917 -11.51933,3.15871 -3.1207,-1.12689 -3.33738,-1.71126 -3.05177,-8.23034 0.38271,-8.73524 1.226,-12.63999 18.61291,-86.18425 13.8798,-58.709661 18.05097,-78.859357 16.92956,-81.781685 -0.30896,-0.805144 -2.66488,-1.994376 -5.23539,-2.642736 -7.0009,-1.765848 -6.66153,-4.021536 1.13167,-7.521776 9.83814,-4.418696 21.07472,-6.699864 23.41892,-4.754336 4.56364,3.78748 3.64863,9.823936 -10.64584,70.231933 -5.01568,21.19611 -9.11943,39.85719 -9.11943,41.46907 0,1.61485 1.15786,3.55035 2.57882,4.31082 2.19258,1.17344 3.49394,0.53082 8.68905,-4.29076 3.36064,-3.11899 7.93206,-6.59945 10.15873,-7.73436 5.13311,-2.61628 13.51468,-3.9801 17.8198,-2.89959 6.39706,1.60556 6.34066,4.90022 -0.63028,36.81466 -3.53894,16.20203 -6.42557,30.79313 -6.41473,32.42469 0.0328,4.93718 1.86604,6.64421 6.20371,5.77667 l 3.90948,-0.7819 -1.63407,3.8863 c -2.08525,4.95935 -9.29045,12.62604 -13.29797,14.1497 -4.92379,1.87202 -10.11815,1.37376 -13.4018,-1.28553 l 0,0 z" id="path3009" style="fill:#ffffff;fill-opacity:1;stroke:none"/>
  <path d="m 349.97749,243.33602 c -21.48469,-2.12119 -32.75109,-7.39086 -39.64656,-18.54401 -3.69906,-5.98309 -3.88807,-6.96264 -3.84166,-19.90994 0.0564,-15.74048 2.5311,-23.23644 12.74182,-38.59554 9.11463,-13.71037 19.43003,-20.1608 34.48261,-21.56268 18.49168,-1.72218 27.28971,10.16809 18.85319,25.47951 -3.73209,6.77336 -11.08903,11.14295 -26.86478,15.95613 -20.56558,6.27455 -22.14994,8.09533 -19.2615,22.13584 2.1698,10.5472 3.1038,11.77636 11.97656,15.7614 25.2353,11.33398 56.51018,11.72882 72.53344,0.91572 5.01896,-3.38699 7.02779,-6.04055 11.54464,-15.24992 3.00761,-6.13219 6.10838,-11.54497 6.8906,-12.02841 0.78221,-0.48343 2.83746,-0.52377 4.56722,-0.0896 10.66587,2.67696 -6.49742,27.32609 -26.42169,37.94562 -12.62424,6.72865 -36.09829,9.90422 -57.55389,7.7859 l 0,1e-5 z m 2.16096,-69.22181 c 4.22228,-2.02276 4.53019,-2.59196 4.8994,-9.05728 0.67063,-11.74356 -5.4928,-14.81507 -15.47108,-7.70992 -4.37654,3.11638 -10.6853,15.53575 -9.48316,18.66848 0.63982,1.66735 2.08406,1.86928 8.16337,1.14143 4.06232,-0.48637 9.41347,-1.85559 11.89147,-3.04271 z" id="path3011" style="fill:#ffffff;fill-opacity:1;stroke:none"/>
  <path d="m 513.7649,326.43801 c -9.78793,-3.4868 -16.25198,-10.31077 -16.59876,-17.523 -0.17786,-3.69925 0.26137,-4.43737 2.85918,-4.8047 2.37024,-0.33517 4.71581,1.33344 10.29813,7.32595 8.18039,8.78147 11.65228,10.49812 21.15074,10.4579 11.34971,-0.0482 21.24926,-6.16501 26.4382,-16.33614 2.57789,-5.05309 11.47624,-39.41917 14.47282,-55.89509 2.28892,-12.58505 2.02704,-12.87661 -10.7076,-11.92158 -19.05492,1.42902 -33.36353,-3.22496 -45.19477,-14.69994 -9.74597,-9.4525 -13.13385,-17.22173 -14.94783,-34.27903 -2.24244,-21.08602 2.04692,-44.63076 11.75994,-64.5516 8.07271,-16.55666 26.90204,-34.663175 42.2317,-40.610519 9.55656,-3.707592 30.36241,-4.66092 44.16469,-2.02364 5.52867,1.0564 11.04288,1.661632 12.25379,1.344968 2.46672,-0.645056 5.40455,-4.803912 12.26176,-17.357992 3.56716,-6.530704 5.63874,-8.89568 8.73864,-9.97632 7.76756,-2.707776 16.55161,-1.308872 16.55161,2.635936 0,3.216776 -2.55275,4.10524 -6.96995,2.425824 -4.33102,-1.646648 -13.86763,2.034832 -16.10617,6.217576 -1.47401,2.7542 -7.94908,23.039016 -13.00002,40.725837 -1.61751,5.66398 -3.66348,11.08981 -4.54663,12.0574 -2.56255,2.8076 -4.85881,-2.79048 -3.86448,-9.42121 2.54823,-16.992763 -16.53499,-28.806435 -37.75212,-23.370851 -15.08325,3.864144 -22.59141,10.926056 -31.62523,29.745541 -10.01609,20.8658 -13.57049,38.42896 -13.57308,67.06798 -0.002,18.28346 0.19199,19.814 3.25746,25.74534 8.47571,16.39961 28.54365,24.7168 42.43876,17.58883 5.9587,-3.05672 8.63719,-5.87715 10.7148,-11.28259 2.63603,-6.85834 7.94492,-31.34222 7.2108,-33.25529 -0.89319,-2.32763 -6.27391,-3.43182 -16.72327,-3.43182 -4.4717,0 -8.45573,-0.52647 -8.85341,-1.16993 -0.39769,-0.64346 1.01033,-2.62848 3.1289,-4.41115 4.48451,-3.77345 8.26257,-4.30357 37.65712,-5.28386 13.85453,-0.46204 21.74065,-1.29343 24.93711,-2.62899 6.2388,-2.60675 8.2222,-2.46178 8.2222,0.60095 0,5.05038 -6.53575,10.33478 -16.04242,12.9709 -4.92439,1.36549 -9.64659,3.20993 -10.49378,4.09875 -0.8472,0.88882 -4.48005,14.93924 -8.073,31.22317 -7.22,32.72235 -16.47026,68.24923 -20.61298,79.16693 -5.51258,14.52782 -18.61422,27.34476 -32.88374,32.16921 -9.07102,3.06685 -24.54112,3.38716 -32.17911,0.66625 l 0,0 z" id="path3013" style="fill:#ffffff;fill-opacity:1;stroke:none"/>
  <path d="m 654.24069,238.22837 c -5.21016,-1.56388 -12.13914,-7.19545 -14.52152,-11.80247 -4.70467,-9.09781 -4.55322,-31.50886 0.30178,-44.65671 5.88606,-15.94011 15.6804,-27.54222 27.99946,-33.16742 6.62212,-3.02382 9.501,-3.57654 18.20894,-3.49595 14.79858,0.13696 21.1908,3.16988 25.84476,12.26258 4.60629,8.99955 5.61197,23.64459 2.46027,35.82732 -5.16017,19.94645 -20.14364,39.66088 -33.6378,44.2588 -6.46295,2.20215 -20.53625,2.61071 -26.65589,0.77385 z m 24.99504,-10.59826 c 12.35172,-8.17902 24.36369,-53.92158 18.07367,-68.82598 -2.09441,-4.96276 -4.82449,-6.02822 -14.8584,-5.79874 -9.53602,0.2181 -13.21191,3.36159 -19.55901,16.72622 -11.89646,25.04949 -12.60723,54.986 -1.41258,59.49524 5.32005,2.14292 13.17559,1.43652 17.75632,-1.59674 z" id="path3015" style="fill:#ffffff;fill-opacity:1;stroke:none"/>
  <path d="m 730.74541,234.86366 c -1.64832,-1.15452 -3.80465,-4.03227 -4.79186,-6.39498 -3.7083,-8.87522 -2.32718,-19.01255 9.86342,-72.39707 12.95244,-56.720781 20.69865,-94.796973 19.7751,-97.203709 -0.33432,-0.871224 -2.38795,-2.255952 -4.56363,-3.077176 -2.24315,-0.846696 -3.73051,-2.217216 -3.43547,-3.165584 1.62299,-5.216768 21.66024,-8.81072 24.8444,-4.456168 0.86192,1.17872 1.36408,3.445808 1.11592,5.037968 -2.46128,15.791624 -12.76381,67.958259 -20.40136,103.301669 -5.20184,24.07189 -9.85517,46.82538 -10.34075,50.56329 -1.31963,10.15835 2.40551,13.07189 11.01852,8.61794 3.60124,-1.86228 3.79787,-1.82915 3.79787,0.63992 0,4.83461 -16.6845,20.63304 -21.79025,20.63304 -1.15223,0 -3.44359,-0.94461 -5.09191,-2.09914 l 0,0 z" id="path3017" style="fill:#ffffff;fill-opacity:1;stroke:none"/>
  <path d="m 782.37225,236.10231 c -9.66592,-4.74202 -13.89088,-14.40837 -12.48544,-28.56524 2.118,-21.33357 9.01576,-39.65206 19.34856,-51.38418 8.26872,-9.38855 11.59824,-10.80336 28.0048,-11.89994 7.67152,-0.51275 14.482,-1.4661 15.1344,-2.11855 0.65248,-0.65247 3.72608,-11.29803 6.83024,-23.65682 8.144,-32.423975 15.18064,-45.707007 30.72048,-57.990527 12.5312,-9.905336 37.57776,-14.650616 47.0016,-8.904824 5.3376,3.254416 5.76712,8.35868 0.89032,10.580704 -2.7496,1.252784 -5.04704,0.929424 -13.9148,-1.958496 -5.84184,-1.902464 -12.91312,-3.459032 -15.714,-3.459032 -10.92792,0 -19.90408,8.53972 -23.91368,22.750792 -5.63352,19.967088 -26.69888,121.177643 -27.038,129.906683 -0.26136,6.72882 0.74576,8.25091 5.45952,8.25091 3.75432,0 3.78776,0.0598 1.9772,3.53998 -6.27904,12.06956 -29.11888,19.32257 -29.11888,9.247 0,-3.92213 -3.5896,-4.45398 -8.80976,-1.30529 -5.34112,3.22169 -13.75528,7.19167 -17.5792,8.29424 -1.416,0.40828 -4.47304,-0.18905 -6.79336,-1.32741 l 0,0 z m 21.33904,-17.68996 c 7.65432,-3.99879 13.08424,-12.3653 18.03664,-27.79117 5.12,-15.94773 6.73248,-30.97282 3.74208,-34.86776 -6.09392,-7.93706 -21.24768,-6.10853 -27.41792,3.30837 -3.79456,5.79125 -8.22624,19.76434 -10.14128,31.97536 -3.6184,23.07201 2.778,34.16803 15.78048,27.3752 l 0,0 z" id="path3019" style="fill:#ffffff;fill-opacity:1;stroke:none"/>
  <path d="m 875.52249,236.65178 c -6.78928,-1.79491 -15.7588,-10.82733 -16.92504,-17.04375 -1.85024,-9.86293 0.0176,-24.13394 4.37904,-33.45371 10.5052,-22.44914 26.57312,-37.08909 44.35232,-40.41059 8.61592,-1.60963 18.51784,2.38223 21.07184,8.49488 4.56624,10.92852 -3.9312,24.848 -19.48192,31.9128 -4.97648,2.26087 -13.20488,5.99523 -18.28536,8.29858 -10.92912,4.955 -12.59536,7.7027 -11.75088,19.378 0.726,10.03618 2.79584,12.19304 11.70136,12.19304 6.39248,0 10.9688,-1.9299 20.37536,-8.59256 1.14272,-0.80942 3.0608,-1.09442 4.2624,-0.63334 2.03888,0.78238 2.02904,1.10583 -0.14688,4.84652 -3.14744,5.41097 -12.02744,11.34156 -21.30568,14.22928 -8.45752,2.63228 -10.85536,2.73489 -18.24656,0.78085 l 0,0 z m 26.2788,-58.25948 c 12.47752,-9.15933 13.76096,-22.53616 2.16096,-22.52252 -7.13688,0.008 -11.71312,3.96523 -15.48608,13.38999 -3.85872,9.6388 -4.06376,11.17246 -1.80008,13.46589 2.4024,2.43403 8.14896,0.78763 15.1252,-4.33336 l 0,0 z" id="path3021" style="fill:#ffffff;fill-opacity:1;stroke:none"/>
  <path d="m 1035.6773,236.21517 c -27.306,-3.63177 -41.33945,-3.99714 -47.91993,-1.24764 -6.10616,2.5513 -10.53032,2.5361 -12.6712,-0.0435 -2.29216,-2.76188 -0.3756,-5.6885 5.70704,-8.71484 2.63808,-1.31252 5.65248,-3.69287 6.6988,-5.28968 2.88128,-4.39744 5.54464,-18.94388 6.49344,-35.4655 0.75088,-13.07486 0.59128,-15.03746 -1.3544,-16.65222 -1.924,-1.59681 -2.78376,-1.51914 -6.7344,0.6084 -6.154,3.31419 -15.332,13.78234 -19.74048,22.51552 -1.99896,3.95994 -5.19952,12.96174 -7.1124,20.00399 -5.07024,18.66661 -6.63768,22.08178 -10.47152,22.81465 -4.97784,0.95159 -8.1012,-0.34595 -8.94728,-3.71706 -0.42144,-1.67935 1.61232,-15.12255 4.51952,-29.87377 2.9072,-14.75122 5.28584,-28.10951 5.28584,-29.68509 0,-2.02564 -1.13104,-3.25898 -3.86176,-4.21091 -2.124,-0.74042 -3.86184,-2.11402 -3.86184,-3.05244 0,-5.09601 16.25536,-16.67689 22.21896,-15.82961 2.39296,0.33998 3.10152,1.6126 4.17008,7.48954 2.21592,12.18779 3.72056,12.45682 14.15992,2.53174 8.15736,-7.75552 13.16688,-10.25534 20.55131,-10.25534 5.2273,0 6.1677,0.46156 8.5242,4.18362 2.3105,3.6494 2.562,5.58076 1.9698,15.12538 -0.7164,11.5445 -2.8909,20.16495 -9.9615,39.48975 -2.3772,6.49743 -3.97957,12.1562 -3.56069,12.57506 1.24469,1.24464 63.91709,7.12453 76.07729,7.13751 13.0547,0.0139 24.2926,-3.428 27.5817,-8.44772 1.1153,-1.70225 3.179,-9.90833 4.586,-18.23574 2.6619,-15.7545 3.7148,-18.35892 7.4221,-18.35892 4.1024,0 6.7753,4.58252 6.7753,11.61588 0,14.9832 -16.3439,36.33122 -32.8141,42.86093 -10.973,4.35034 -21.7902,4.37611 -53.7298,0.12805 l 0,0 z" id="path3023" style="fill:#ffffff;fill-opacity:1;stroke:none"/>
  <path d="m 1198.591,326.43801 c -2.7911,-0.99428 -6.5563,-2.90593 -8.3672,-4.24816 -3.7648,-2.79032 -9.0327,-11.38584 -9.0642,-14.78957 -0.057,-6.11147 9.6837,-3.24981 14.6906,4.31612 4.3565,6.58309 11.6037,10.21392 20.315,10.17776 13.6634,-0.0568 24.6727,-8.3958 29.1556,-22.0841 4.2904,-13.10054 13.2356,-53.69534 12.8051,-58.11149 l -0.3951,-4.05212 -16.0908,-0.031 c -15.5614,-0.0301 -16.3975,-0.17444 -25.412,-4.38888 -9.6089,-4.49232 -19.8619,-13.72108 -23.8831,-21.49716 -4.8005,-9.28316 -6.3476,-19.79424 -5.7594,-39.12989 0.5107,-16.78635 0.984,-19.88998 4.702,-30.82996 5.148,-15.14724 10.1131,-24.55248 17.9062,-33.91862 8.1259,-9.766215 22.479,-20.941679 31.159,-24.260815 8.9701,-3.430056 29.0604,-4.64396 41.1377,-2.485632 17.7733,3.176272 16.9482,3.600632 26.4988,-13.628456 4.5703,-8.244648 6.6898,-10.810584 9.8356,-11.907224 7.717,-2.69016 16.4984,-1.277296 16.4984,2.654472 0,3.216776 -2.5527,4.10524 -6.9699,2.425824 -2.8301,-1.075984 -4.7158,-0.8358 -9.2763,1.181576 -6.8534,3.031576 -6.9499,3.233984 -16.0104,33.5622 -3.6967,12.373775 -7.2851,23.215485 -7.9744,24.092685 -2.3051,2.93352 -3.536,0.25264 -3.536,-7.70079 0,-14.683351 -6.7763,-22.867351 -21.1311,-25.520975 -11.5918,-2.142864 -23.8096,0.918152 -33.6633,8.433992 -8.2139,6.265103 -18.7039,25.864983 -23.7804,44.432773 -3.7055,13.55273 -5.0977,25.75149 -5.0966,44.65729 0,16.9026 0.1826,18.15894 3.6996,25.59315 4.3004,9.09014 10.2354,14.48154 19.6803,17.87792 11.5298,4.14605 20.9834,2.56907 29.1,-4.85424 4.846,-4.432 13.664,-38.2404 10.7374,-41.16702 -0.7553,-0.75522 -6.4544,-1.6227 -12.6649,-1.92773 -6.2105,-0.30504 -11.7612,-0.98986 -12.3349,-1.52183 -0.5737,-0.53198 0.7237,-2.45387 2.8831,-4.27089 4.5684,-3.84408 8.2259,-4.36233 37.7313,-5.34631 13.8545,-0.46204 21.7407,-1.29343 24.9371,-2.62899 8.4848,-3.54517 10.4512,-1.61839 6.0141,5.89293 -2.2064,3.73529 -7.0049,6.0985 -18.0444,8.88673 -2.997,0.75694 -6.0059,2.41667 -6.6864,3.6883 -0.6805,1.27162 -4.4668,16.89512 -8.4139,34.71889 -7.9207,35.76741 -17.1661,69.40288 -21.8131,79.35745 -5.9234,12.68873 -17.6218,23.09122 -31.2352,27.77491 -8.6642,2.98093 -24.3394,3.26458 -31.8839,0.57695 l 0,0 z" id="path3025" style="fill:#ffffff;fill-opacity:1;stroke:none"/>
  <path d="m 1358.3372,118.75469 c -3.1876,-3.52226 -2.6993,-10.06671 1.0292,-13.79528 4.051,-4.05096 7.6986,-4.00386 11.8555,0.15308 2.7639,2.76387 3.1856,4.09618 2.5455,8.0412 -0.4221,2.60065 -1.7602,5.45444 -2.9737,6.34176 -3.2531,2.37876 -9.9963,1.97776 -12.4565,-0.74076 l 0,0 z" id="path3027" style="fill:#ffffff;fill-opacity:1;stroke:none"/>
  <path d="m 1328.4069,232.59929 c -1.213,-3.16079 0.3591,-11.61066 7.3189,-39.33872 3.4742,-13.8416 6.3177,-25.89064 6.3189,-26.77564 0,-0.885 -1.0457,-1.60908 -2.3264,-1.60908 -1.2806,0 -3.3814,-0.76996 -4.6684,-1.711 -1.8637,-1.36279 -2.0592,-2.23549 -0.9606,-4.28828 2.1711,-4.0568 15.8424,-10.7352 21.9758,-10.7352 4.9763,0 5.2908,0.22124 5.2908,3.72204 0,2.04712 -3.221,16.3096 -7.1577,31.69439 -3.9368,15.38479 -6.8318,28.82171 -6.4335,29.85983 0.3984,1.03811 2.4608,2.54293 4.5832,3.34404 2.1224,0.8011 3.8588,1.96427 3.8588,2.58481 0,2.5651 -4.3966,8.27852 -8.5724,11.1398 -5.7719,3.95499 -18.0048,5.29932 -19.2274,2.11301 l 0,0 z" id="path3029" style="fill:#ffffff;fill-opacity:1;stroke:none"/>
  <path d="m 1375.1939,234.28516 c -3.447,-2.00775 -2.8431,-8.21473 3.4344,-35.29674 3.1181,-13.45194 6.0738,-27.19318 6.5682,-30.53609 0.8381,-5.66725 0.6766,-6.17926 -2.3893,-7.57615 -8.0726,-3.67815 -4.8553,-7.82084 10.1939,-13.12608 10.1864,-3.59092 10.0907,-3.61792 13.9249,3.93126 2.5916,5.10272 7.1891,5.60637 10.6788,1.16988 5.3056,-6.745 13.9273,-8.02485 19.1147,-2.83748 3.148,3.14801 3.6562,4.89009 3.2092,11.00028 -0.3401,4.64772 -2.8326,5.99738 -12.9095,6.99033 -8.0017,0.78848 -9.4041,1.35589 -13.173,5.32975 -2.3198,2.44603 -6.3159,7.89793 -8.8803,12.11533 -4.2912,7.05734 -6.4068,12.79167 -14.018,37.99704 -1.4966,4.95598 -3.6643,9.73496 -4.8172,10.61996 -2.5104,1.92713 -7.8212,2.03333 -10.9368,0.21871 z" id="path3031" style="fill:#ffffff;fill-opacity:1;stroke:none"/>
  <path d="m 1451.0877,233.08086 c -8.9088,-7.00765 -8.0886,-18.65642 5.4373,-77.21589 9.2181,-39.90934 20.6849,-93.581885 20.6849,-96.819285 0,-0.604912 -2.0275,-2.296056 -4.5055,-3.758112 -2.478,-1.462048 -4.5054,-3.20864 -4.5054,-3.88132 0,-2.320136 10.9166,-6.1896 17.5423,-6.217976 9.2807,-0.03976 9.9033,1.128216 7.6102,14.278048 -4.1401,23.740888 -11.4912,60.456625 -19.9448,99.616815 -9.6104,44.51852 -11.0328,53.11163 -9.2417,55.83243 1.1822,1.796 7.4752,1.57641 12.0794,-0.42152 6.9903,-3.03324 -2.8618,11.38819 -11.9493,17.49145 -6.512,4.37347 -8.7988,4.56314 -13.2074,1.09536 l 0,0 z" id="path3033" style="fill:#ffffff;fill-opacity:1;stroke:none"/>
  <path d="m 1494.605,233.77453 c -5.0214,-1.82674 -8.3843,-4.92039 -8.3843,-7.71311 0,-2.94274 4.1342,-7.12036 7.0463,-7.12036 1.6711,0 5.7412,1.15854 9.0446,2.57454 11.3607,4.86975 20.3755,2.61169 21.5511,-5.3982 1.048,-7.14062 -1.301,-11.9458 -11.2878,-23.09124 -5.3089,-5.92471 -10.8036,-13.12736 -12.2106,-16.00588 -6.4958,-13.28962 -0.1659,-28.32412 14.0346,-33.33434 14.0543,-4.95865 29.0004,0.0946 24.5998,8.31723 -1.5974,2.98472 -6.1592,3.32737 -14.5216,1.09075 -4.4593,-1.19268 -6.2706,-1.12955 -9.2324,0.32181 -8.9009,4.36165 -7.8352,8.50483 6.2328,24.23128 13.3991,14.97874 16.8459,21.36086 15.7711,29.20215 -0.9573,6.9844 -4.5663,14.19855 -9.3956,18.78104 -8.063,7.65095 -23.9241,11.53625 -33.248,8.14433 l 0,0 z" id="path3035" style="fill:#ffffff;fill-opacity:1;stroke:none"/>
</svg>